<svg xmlns="http://www.w3.org/2000/svg" viewBox="0 0 128 128" width="128" height="128">
  <defs>
    <linearGradient id="bg" x1="0%" y1="0%" x2="100%" y2="100%">
      <stop offset="0%" style="stop-color:#6366F1"/>
      <stop offset="100%" style="stop-color:#8B5CF6"/>
    </linearGradient>
  </defs>
  <rect width="128" height="128" rx="24" fill="url(#bg)"/>
  <path d="M64 24C44 24 28 40 28 60c0 12 6 22 15 28l-5 22 24-14c4 1 8 1 12 1 20 0 36-16 36-36S84 24 64 24z" fill="#fff" opacity="0.95"/>
  <circle cx="52" cy="56" r="6" fill="#6366F1"/>
  <circle cx="76" cy="56" r="6" fill="#6366F1"/>
  <path d="M52 72c0 0 6 8 12 8s12-8 12-8" stroke="#6366F1" stroke-width="4" stroke-linecap="round" fill="none"/>
</svg>
